<svg xmlns="http://www.w3.org/2000/svg" width="4em" height="1em" viewBox="89.3639923095703 14.203150939941409 321.2720153808594 121.59369812011718" preserveAspectRatio="xMidYMid"><defs><linearGradient id="editing-shiny-gradient" x1="0.6953655642446368" x2="0.3046344357553632" y1="0.03974757327377981" y2="0.9602524267262202" gradientUnits="objectBoundingBox"><stop offset="0.0" stop-color="#ff5200"/><stop offset="0.5" stop-color="#ff230b"/><stop offset="1.0" stop-color="#ff8158"/></linearGradient><linearGradient id="editing-shiny-gradient2" x1="0" x2="0" y1="0" y2="1"><stop offset="0.2" stop-color="#fff" stop-opacity="0.8"/><stop offset="0.8" stop-color="#fff" stop-opacity="0"/></linearGradient><filter id="editing-shiny2" x="-100%" y="-100%" width="300%" height="300%"><feMorphology operator="erode" radius="2"/></filter><filter id="editing-shiny" x="-100%" y="-100%" width="300%" height="300%"><feFlood flood-color="#fff" result="flood"/><feConvolveMatrix in="SourceGraphic" result="conv" order="8,8" divisor="1" kernelMatrix="0 0 0 0 0 0 0 0 0 0 0 1 1 0 0 0 0 0 0 1 1 0 0 0 0 0 1 0 0 1 0 0 0 0 1 0 0 1 0 0 0 1 0 0 0 0 1 0 0 1 1 0 0 1 1 0 0 0 0 1 1 0 0 0 "/><feOffset dx="0" dy="4" in="conv" result="offset"/><feComposite operator="in" in="flood" in2="offset" result="comp"/><feGaussianBlur in="offset" stdDeviation="3" result="shadow"/><feColorMatrix in="shadow" type="matrix" values="0.7 0 0 0 0  0 0.7 0 0 0  0 0 0.7 0 0  0 0 0 0.3 0" result="dark-shadow"/><feOffset dx="0" dy="4" in="dark-shadow" result="offset-shadow"/><feOffset dx="0" dy="2" in="conv" result="offset-2"/><feComposite operator="out" in="offset" in2="offset-2" result="edge-diff"/><feGaussianBlur in="edge-diff" stdDeviation="1" result="edge-blur"/><feColorMatrix in="edge-blur" result="edge-shadow" type="matrix" values="0 0 0 0 0  0 0 0 0 0  0 0 0 0 0  0 0 0 0.5 0"/><feComposite operator="in" in="edge-shadow" in2="offset" result="edge-shadow-in"/><feOffset dx="0" dy="1" in="edge-shadow-in" result="edge-shadow-final"/><feMerge result="out"><feMergeNode in="offset-shadow"/><feMergeNode in="comp"/><feMergeNode in="edge-shadow-final"/><feMergeNode in="SourceGraphic"/></feMerge></filter></defs><g filter="url(#editing-shiny)"><g transform="translate(139.67326810956, 104.12000465393066)"><path d="M26.11-42.69L26.11-42.69L26.11-42.69Q41.79-42.69 41.79-31.62L41.79-31.62L41.79-31.62Q41.79-25.54 37.89-21.89L37.89-21.89L37.89-21.89Q34.05-18.24 27.33-18.24L27.33-18.24L27.33-18.24Q24.19-18.24 21.76-20.03L21.76-20.03L21.76-20.03Q20.61-20.80 19.84-21.82L19.84-21.82L19.84-21.82Q24.51-21.82 26.98-24.67L26.98-24.67L26.98-24.67Q29.44-27.52 29.44-33.09L29.44-33.09L29.44-33.09Q29.44-38.66 23.94-38.66L23.94-38.66L22.40-38.66L22.40-38.66Q22.02-38.66 21.70-38.59L21.70-38.59L14.34 0L0.45 0L8.32-41.92L8.32-41.92Q15.17-42.56 19.14-42.62L19.14-42.62L19.14-42.62Q23.10-42.69 26.11-42.69ZM44.90-1.92L44.90-1.92L44.90-1.92Q43.39-3.58 42.72-6.21L42.72-6.21L42.72-6.21Q42.05-8.83 42.05-13.12L42.05-13.12L42.05-13.12Q42.05-17.41 43.52-21.31L43.52-21.31L43.52-21.31Q44.99-25.22 47.68-28.03L47.68-28.03L47.68-28.03Q53.18-33.92 62.27-33.92L62.27-33.92L62.27-33.92Q65.54-33.92 67.90-32.83L67.90-32.83L78.85-33.92L74.11-8.96L74.11-8.96Q73.92-8.19 73.92-6.78L73.92-6.78L73.92-6.78Q73.92-5.38 74.78-4.48L74.78-4.48L74.78-4.48Q75.65-3.58 76.93-3.46L76.93-3.46L76.93-3.46Q76.29-1.28 73.95 0L73.95 0L73.95 0Q71.62 1.28 68.99 1.28L68.99 1.28L68.99 1.28Q66.37 1.28 64.61 0.29L64.61 0.29L64.61 0.29Q62.85-0.70 62.34-2.37L62.34-2.37L62.34-2.37Q61.31-0.77 59.14 0.26L59.14 0.26L59.14 0.26Q56.96 1.28 54.05 1.28L54.05 1.28L54.05 1.28Q51.14 1.28 48.77 0.51L48.77 0.51L48.77 0.51Q46.40-0.26 44.90-1.92ZM58.40-27.90L58.40-27.90L58.40-27.90Q57.66-26.75 57.02-24.80L57.02-24.80L57.02-24.80Q56.38-22.85 55.33-17.63L55.33-17.63L55.33-17.63Q54.27-12.42 54.27-8.70L54.27-8.70L54.27-8.70Q54.27-4.99 54.85-3.90L54.85-3.90L54.85-3.90Q55.42-2.82 56.45-2.82L56.45-2.82L56.45-2.82Q58.50-2.82 60-4.77L60-4.77L60-4.77Q61.50-6.72 62.08-10.18L62.08-10.18L65.47-28.93L65.47-28.93Q64.13-30.08 62.56-30.08L62.56-30.08L62.56-30.08Q60.99-30.08 60.06-29.57L60.06-29.57L60.06-29.57Q59.14-29.06 58.40-27.90ZM109.38 1.28L109.38 1.28L109.38 1.28Q101.63 1.28 101.63-4.74L101.63-4.74L101.63-4.74Q101.70-6.40 102.21-9.22L102.21-9.22L103.36-15.10L103.36-15.10Q105.09-23.42 105.09-25.28L105.09-25.28L105.09-25.28Q105.09-28.99 102.91-28.99L102.91-28.99L102.91-28.99Q99.26-28.99 97.34-19.46L97.34-19.46L93.57 0L80.70 1.28L87.36-32.70L97.86-33.92L96.83-27.65L96.83-27.65Q99.84-33.92 109.06-33.92L109.06-33.92L109.06-33.92Q113.54-33.92 115.42-32.03L115.42-32.03L115.42-32.03Q117.31-30.14 117.31-25.92L117.31-25.92L117.31-25.92Q117.31-21.95 115.26-12.67L115.26-12.67L115.26-12.67Q114.30-8.51 114.30-6.94L114.30-6.94L114.30-6.94Q114.30-5.38 115.17-4.48L115.17-4.48L115.17-4.48Q116.03-3.58 117.31-3.46L117.31-3.46L117.31-3.46Q116.67-1.28 114.46 0L114.46 0L114.46 0Q112.26 1.28 109.38 1.28ZM138.94-30.34L138.94-30.34L138.94-30.34Q142.40-33.92 149.70-33.92L149.70-33.92L149.70-33.92Q153.73-33.92 155.94-31.78L155.94-31.78L155.94-31.78Q158.14-29.63 158.14-25.70L158.14-25.70L158.14-25.70Q158.14-21.76 155.94-18.98L155.94-18.98L155.94-18.98Q153.73-16.19 149.63-15.04L149.63-15.04L149.63-15.04Q149.95-13.76 150.40-12.42L150.40-12.42L151.30-9.86L151.30-9.86Q152.51-6.59 153.47-5.44L153.47-5.44L153.47-5.44Q154.43-4.29 155.71-3.90L155.71-3.90L155.71-3.90Q155.01-1.28 152.45 0.13L152.45 0.13L152.45 0.13Q150.40 1.28 147.58 1.28L147.58 1.28L147.58 1.28Q139.33 1.28 138.24-11.46L138.24-11.46L138.24-11.46Q138.05-13.25 138.05-15.04L138.05-15.04L138.05-15.04Q141.25-15.94 143.49-18.94L143.49-18.94L143.49-18.94Q145.73-21.95 145.73-25.47L145.73-25.47L145.73-25.47Q145.73-28.99 143.23-28.99L143.23-28.99L143.23-28.99Q141.44-28.99 140.03-27.01L140.03-27.01L140.03-27.01Q138.62-25.02 137.98-21.63L137.98-21.63L133.76 0L120.83 1.28L129.79-44.80L142.66-46.08L141.18-38.46L141.18-38.46Q140.22-33.09 138.94-30.34ZM163.87-1.92L163.87-1.92L163.87-1.92Q162.37-3.58 161.70-6.21L161.70-6.21L161.70-6.21Q161.02-8.83 161.02-13.12L161.02-13.12L161.02-13.12Q161.02-17.41 162.50-21.31L162.50-21.31L162.50-21.31Q163.97-25.22 166.66-28.03L166.66-28.03L166.66-28.03Q172.16-33.92 181.25-33.92L181.25-33.92L181.25-33.92Q184.51-33.92 186.88-32.83L186.88-32.83L197.82-33.92L193.09-8.96L193.09-8.96Q192.90-8.19 192.90-6.78L192.90-6.78L192.90-6.78Q192.90-5.38 193.76-4.48L193.76-4.48L193.76-4.48Q194.62-3.58 195.90-3.46L195.90-3.46L195.90-3.46Q195.26-1.28 192.93 0L192.93 0L192.93 0Q190.59 1.28 187.97 1.28L187.97 1.28L187.97 1.28Q185.34 1.28 183.58 0.29L183.58 0.29L183.58 0.29Q181.82-0.70 181.31-2.37L181.31-2.37L181.31-2.37Q180.29-0.77 178.11 0.26L178.11 0.26L178.11 0.26Q175.94 1.28 173.02 1.28L173.02 1.28L173.02 1.28Q170.11 1.28 167.74 0.51L167.74 0.51L167.74 0.51Q165.38-0.26 163.87-1.92ZM177.38-27.90L177.38-27.90L177.38-27.90Q176.64-26.75 176-24.80L176-24.80L176-24.80Q175.36-22.85 174.30-17.63L174.30-17.63L174.30-17.63Q173.25-12.42 173.25-8.70L173.25-8.70L173.25-8.70Q173.25-4.99 173.82-3.90L173.82-3.90L173.82-3.90Q174.40-2.82 175.42-2.82L175.42-2.82L175.42-2.82Q177.47-2.82 178.98-4.77L178.98-4.77L178.98-4.77Q180.48-6.72 181.06-10.18L181.06-10.18L184.45-28.93L184.45-28.93Q183.10-30.08 181.54-30.08L181.54-30.08L181.54-30.08Q179.97-30.08 179.04-29.57L179.04-29.57L179.04-29.57Q178.11-29.06 177.38-27.90ZM192.38 7.62L192.38 7.62L192.38 7.62Q195.71 7.36 198.14 3.20L198.14 3.20L198.14 3.20Q200 0 201.22-5.89L201.22-5.89L206.40-32.64L219.26-33.92L213.82-5.89L213.82-5.89Q211.71 4.80 208.45 8.32L208.45 8.32L208.45 8.32Q206.72 10.24 204.48 10.88L204.48 10.88L204.48 10.88Q202.24 11.52 199.68 11.52L199.68 11.52L199.68 11.52Q194.30 11.52 192.38 7.62ZM207.42-41.54L207.42-41.54L207.42-41.54Q207.42-44.03 209.50-45.38L209.50-45.38L209.50-45.38Q211.58-46.72 214.59-46.72L214.59-46.72L214.59-46.72Q217.60-46.72 219.42-45.38L219.42-45.38L219.42-45.38Q221.25-44.03 221.25-41.54L221.25-41.54L221.25-41.54Q221.25-39.04 219.23-37.76L219.23-37.76L219.23-37.76Q217.22-36.48 214.21-36.48L214.21-36.48L214.21-36.48Q211.20-36.48 209.31-37.76L209.31-37.76L209.31-37.76Q207.42-39.04 207.42-41.54Z" fill="url(#editing-shiny-gradient)"/></g></g><g filter="url(#editing-shiny2)"><g transform="translate(139.96651151776314, 104.1200008392334)"><path d="M26.11-42.69L26.11-42.69L26.11-42.69Q41.79-42.69 41.79-31.62L41.79-31.62L41.79-31.62Q41.79-25.54 37.89-21.89L37.89-21.89L37.89-21.89Q34.05-18.24 27.33-18.24L27.33-18.24L27.33-18.24Q24.19-18.24 21.76-20.03L21.76-20.03L21.76-20.03Q20.61-20.80 19.84-21.82L19.84-21.82L19.84-21.82Q24.51-21.82 26.98-24.67L26.98-24.67L26.98-24.67Q29.44-27.52 29.44-33.09L29.44-33.09L29.44-33.09Q29.44-38.66 23.94-38.66L23.94-38.66L22.40-38.66L22.40-38.66Q22.02-38.66 21.70-38.59L21.70-38.59L14.34 0L0.45 0L8.32-41.92L8.32-41.92Q15.17-42.56 19.14-42.62L19.14-42.62L19.14-42.62Q23.10-42.69 26.11-42.69ZM44.90-1.92L44.90-1.92L44.90-1.92Q43.39-3.58 42.72-6.21L42.72-6.21L42.72-6.21Q42.05-8.83 42.05-13.12L42.05-13.12L42.05-13.12Q42.05-17.41 43.52-21.31L43.52-21.31L43.52-21.31Q44.99-25.22 47.68-28.03L47.68-28.03L47.68-28.03Q53.18-33.92 62.27-33.92L62.27-33.92L62.27-33.92Q65.54-33.92 67.90-32.83L67.90-32.83L78.85-33.92L74.11-8.96L74.11-8.96Q73.92-8.19 73.92-6.78L73.92-6.78L73.92-6.78Q73.92-5.38 74.78-4.48L74.78-4.48L74.78-4.48Q75.65-3.58 76.93-3.46L76.93-3.46L76.93-3.46Q76.29-1.28 73.95 0L73.95 0L73.95 0Q71.62 1.28 68.99 1.28L68.99 1.28L68.99 1.28Q66.37 1.28 64.61 0.29L64.61 0.29L64.61 0.29Q62.85-0.70 62.34-2.37L62.34-2.37L62.34-2.37Q61.31-0.77 59.14 0.26L59.14 0.26L59.14 0.26Q56.96 1.28 54.05 1.28L54.05 1.28L54.05 1.28Q51.14 1.28 48.77 0.51L48.77 0.51L48.77 0.51Q46.40-0.26 44.90-1.92ZM58.40-27.90L58.40-27.90L58.40-27.90Q57.66-26.75 57.02-24.80L57.02-24.80L57.02-24.80Q56.38-22.85 55.33-17.63L55.33-17.63L55.33-17.63Q54.27-12.42 54.27-8.70L54.27-8.70L54.27-8.70Q54.27-4.99 54.85-3.90L54.85-3.90L54.85-3.90Q55.42-2.82 56.45-2.82L56.45-2.82L56.45-2.82Q58.50-2.82 60-4.77L60-4.77L60-4.77Q61.50-6.72 62.08-10.18L62.08-10.18L65.47-28.93L65.47-28.93Q64.13-30.08 62.56-30.08L62.56-30.08L62.56-30.08Q60.99-30.08 60.06-29.57L60.06-29.57L60.06-29.57Q59.14-29.06 58.40-27.90ZM109.38 1.28L109.38 1.28L109.38 1.28Q101.63 1.28 101.63-4.74L101.63-4.74L101.63-4.74Q101.70-6.40 102.21-9.22L102.21-9.22L103.36-15.10L103.36-15.10Q105.09-23.42 105.09-25.28L105.09-25.28L105.09-25.28Q105.09-28.99 102.91-28.99L102.91-28.99L102.91-28.99Q99.26-28.99 97.34-19.46L97.34-19.46L93.57 0L80.70 1.28L87.36-32.70L97.86-33.92L96.83-27.65L96.83-27.65Q99.84-33.92 109.06-33.92L109.06-33.92L109.06-33.92Q113.54-33.92 115.42-32.03L115.42-32.03L115.42-32.03Q117.31-30.14 117.31-25.92L117.31-25.92L117.31-25.92Q117.31-21.95 115.26-12.67L115.26-12.67L115.26-12.67Q114.30-8.51 114.30-6.94L114.30-6.94L114.30-6.94Q114.30-5.38 115.17-4.48L115.17-4.48L115.17-4.48Q116.03-3.58 117.31-3.46L117.31-3.46L117.31-3.46Q116.67-1.28 114.46 0L114.46 0L114.46 0Q112.26 1.28 109.38 1.28ZM138.94-30.34L138.94-30.34L138.94-30.34Q142.40-33.92 149.70-33.92L149.70-33.92L149.70-33.92Q153.73-33.92 155.94-31.78L155.94-31.78L155.94-31.78Q158.14-29.63 158.14-25.70L158.14-25.70L158.14-25.70Q158.14-21.76 155.94-18.98L155.94-18.98L155.94-18.98Q153.73-16.19 149.63-15.04L149.63-15.04L149.63-15.04Q149.95-13.76 150.40-12.42L150.40-12.42L151.30-9.86L151.30-9.86Q152.51-6.59 153.47-5.44L153.47-5.44L153.47-5.44Q154.43-4.29 155.71-3.90L155.71-3.90L155.71-3.90Q155.01-1.28 152.45 0.13L152.45 0.13L152.45 0.13Q150.40 1.28 147.58 1.28L147.58 1.28L147.58 1.28Q139.33 1.28 138.24-11.46L138.24-11.46L138.24-11.46Q138.05-13.25 138.05-15.04L138.05-15.04L138.05-15.04Q141.25-15.94 143.49-18.94L143.49-18.94L143.49-18.94Q145.73-21.95 145.73-25.47L145.73-25.47L145.73-25.47Q145.73-28.99 143.23-28.99L143.23-28.99L143.23-28.99Q141.44-28.99 140.03-27.01L140.03-27.01L140.03-27.01Q138.62-25.02 137.98-21.63L137.98-21.63L133.76 0L120.83 1.28L129.79-44.80L142.66-46.08L141.18-38.46L141.18-38.46Q140.22-33.09 138.94-30.34ZM163.87-1.92L163.87-1.92L163.87-1.92Q162.37-3.58 161.70-6.21L161.70-6.21L161.70-6.21Q161.02-8.83 161.02-13.12L161.02-13.12L161.02-13.12Q161.02-17.41 162.50-21.31L162.50-21.31L162.50-21.31Q163.97-25.22 166.66-28.03L166.66-28.03L166.66-28.03Q172.16-33.92 181.25-33.92L181.25-33.92L181.25-33.92Q184.51-33.92 186.88-32.83L186.88-32.83L197.82-33.92L193.09-8.96L193.09-8.96Q192.90-8.19 192.90-6.78L192.90-6.78L192.90-6.78Q192.90-5.38 193.76-4.48L193.76-4.48L193.76-4.48Q194.62-3.58 195.90-3.46L195.90-3.46L195.90-3.46Q195.26-1.28 192.93 0L192.93 0L192.93 0Q190.59 1.28 187.97 1.28L187.97 1.28L187.97 1.28Q185.34 1.28 183.58 0.29L183.58 0.29L183.58 0.29Q181.82-0.70 181.31-2.37L181.31-2.37L181.31-2.37Q180.29-0.77 178.11 0.26L178.11 0.26L178.11 0.26Q175.94 1.28 173.02 1.28L173.02 1.28L173.02 1.28Q170.11 1.28 167.74 0.51L167.74 0.51L167.74 0.51Q165.38-0.26 163.87-1.92ZM177.38-27.90L177.38-27.90L177.38-27.90Q176.64-26.75 176-24.80L176-24.80L176-24.80Q175.36-22.85 174.30-17.63L174.30-17.63L174.30-17.63Q173.25-12.42 173.25-8.70L173.25-8.70L173.25-8.70Q173.25-4.99 173.82-3.90L173.82-3.90L173.82-3.90Q174.40-2.82 175.42-2.82L175.42-2.82L175.42-2.82Q177.47-2.82 178.98-4.77L178.98-4.77L178.98-4.77Q180.48-6.72 181.06-10.18L181.06-10.18L184.45-28.93L184.45-28.93Q183.10-30.08 181.54-30.08L181.54-30.08L181.54-30.08Q179.97-30.08 179.04-29.57L179.04-29.57L179.04-29.57Q178.11-29.06 177.38-27.90ZM192.38 7.62L192.38 7.62L192.38 7.62Q195.71 7.36 198.14 3.20L198.14 3.20L198.14 3.20Q200 0 201.22-5.89L201.22-5.89L206.40-32.64L219.26-33.92L213.82-5.89L213.82-5.89Q211.71 4.80 208.45 8.32L208.45 8.32L208.45 8.32Q206.72 10.24 204.48 10.88L204.48 10.88L204.48 10.88Q202.24 11.52 199.68 11.52L199.68 11.52L199.68 11.52Q194.30 11.52 192.38 7.62ZM207.42-41.54L207.42-41.54L207.42-41.54Q207.42-44.03 209.50-45.38L209.50-45.38L209.50-45.38Q211.58-46.72 214.59-46.72L214.59-46.72L214.59-46.72Q217.60-46.72 219.42-45.38L219.42-45.38L219.42-45.38Q221.25-44.03 221.25-41.54L221.25-41.54L221.25-41.54Q221.25-39.04 219.23-37.76L219.23-37.76L219.23-37.76Q217.22-36.48 214.21-36.48L214.21-36.48L214.21-36.48Q211.20-36.48 209.31-37.76L209.31-37.76L209.31-37.76Q207.42-39.04 207.42-41.54Z" fill="url(#editing-shiny-gradient2)"/></g></g><style>text {
  font-size: 100px;
  font-family: Arial Black;
  dominant-baseline: central;
  text-anchor: middle;
}</style></svg>